<svg width="292" height="43" viewBox="0 0 292 43" fill="none" xmlns="http://www.w3.org/2000/svg">
<path fill-rule="evenodd" clip-rule="evenodd" d="M190.241 22.0993C190.215 22.2484 190.157 22.3903 190.072 22.5156C189.987 22.6409 189.876 22.7468 189.747 22.8265C189.485 23.0001 189.254 23.087 189.021 23.1738C188.527 23.3487 188.004 23.5235 187.452 23.7262C186.9 23.93 186.376 24.1338 185.883 24.2785C185.302 24.4823 184.748 24.6572 184.255 24.8598C183.877 25.0335 183.5 25.2373 183.151 25.5279C182.838 25.813 182.573 26.1469 182.366 26.5168C182.135 26.9232 182.018 27.4177 182.018 28.0279C182.018 29.2484 182.307 30.1493 182.89 30.7595C183.47 31.3408 184.546 31.6604 186.116 31.6604C187.714 31.6604 188.817 31.3408 189.398 30.7294C189.98 30.0902 190.27 29.2194 190.27 28.0569V22.0981H190.241V22.0993ZM186.116 9.34226C188.934 9.34226 190.996 9.8946 192.334 10.9981C193.642 12.1028 194.309 13.4981 194.309 15.1551V29.3931C194.309 29.9744 194.193 30.6136 193.99 31.2817C193.786 31.9799 193.379 32.6191 192.77 33.1715C192.159 33.7516 191.316 34.2171 190.27 34.6247C189.224 35.0022 187.829 35.2048 186.143 35.2048C184.43 35.2048 183.063 35.0022 182.018 34.6247C180.971 34.246 180.129 33.7516 179.519 33.1715C178.909 32.5902 178.501 31.951 178.298 31.2817C178.095 30.5846 177.978 29.9455 177.978 29.3943V27.127C177.978 25.9066 178.298 24.8019 178.909 23.8142C179.548 22.8265 180.42 22.1004 181.581 21.6928C182.162 21.489 182.802 21.2864 183.558 21.0247C184.285 20.763 185.011 20.5303 185.708 20.2686C186.405 20.037 186.986 19.8042 187.51 19.6294C188.033 19.4256 188.353 19.3387 188.469 19.2808C188.584 19.2229 188.759 19.1349 188.963 19.0191C189.166 18.9034 189.369 18.7285 189.573 18.5247C189.777 18.2931 189.922 18.0314 190.067 17.7697C190.212 17.4791 190.27 17.1306 190.27 16.7519V15.851C190.27 15.5326 190.212 15.2119 190.067 14.8633C189.951 14.5159 189.719 14.2241 189.398 13.9335C189.079 13.644 188.643 13.4113 188.12 13.2364C187.597 13.0627 186.929 12.9747 186.116 12.9747C184.518 12.9747 183.441 13.2943 182.861 13.9624C182.359 14.5494 182.063 15.2842 182.018 16.0548C182.018 16.2285 181.872 16.3455 181.698 16.3455H178.21C178.126 16.3449 178.045 16.311 177.985 16.2512C177.925 16.1914 177.891 16.1105 177.891 16.0259V15.1829C177.891 14.37 178.037 13.6139 178.356 12.9168C178.646 12.2197 179.14 11.5806 179.839 11.0572C180.507 10.5338 181.35 10.0984 182.395 9.8066C183.442 9.51711 184.662 9.34226 186.116 9.34226ZM130.349 22.0981C130.323 22.2472 130.265 22.389 130.18 22.5143C130.095 22.6396 129.985 22.7456 129.856 22.8253C129.594 22.999 129.363 23.0858 129.13 23.1727C128.636 23.3475 128.112 23.5224 127.561 23.725C127.009 23.9288 126.485 24.1326 125.992 24.2773C125.41 24.4811 124.857 24.656 124.364 24.8586C123.968 25.0313 123.596 25.256 123.259 25.5268C122.97 25.7885 122.708 26.108 122.475 26.5156C122.244 26.9221 122.127 27.4165 122.127 28.0267C122.127 29.2472 122.416 30.1481 122.998 30.7583C123.579 31.3396 124.655 31.6592 126.224 31.6592C127.822 31.6592 128.926 31.3396 129.508 30.7282C130.089 30.089 130.38 29.2183 130.38 28.0557V22.0981H130.351H130.349ZM126.225 9.34226C129.043 9.34226 131.107 9.8946 132.443 10.9981C133.751 12.1028 134.42 13.4981 134.42 15.1551V29.3931C134.42 29.9744 134.304 30.6136 134.1 31.2817C133.896 31.9799 133.49 32.6191 132.88 33.1715C132.269 33.7516 131.426 34.2171 130.381 34.6247C129.334 35.0022 127.94 35.2048 126.254 35.2048C124.54 35.2048 123.174 35.0022 122.128 34.6247C121.081 34.246 120.239 33.7516 119.628 33.1715C119.017 32.589 118.61 31.951 118.408 31.2806C118.204 30.5835 118.087 29.9443 118.087 29.3931V27.1259C118.087 25.9054 118.408 24.8007 119.017 23.813C119.656 22.8253 120.528 22.0993 121.692 21.6917C122.27 21.4879 122.911 21.2852 123.667 21.0235C124.393 20.7618 125.119 20.5291 125.817 20.2674C126.514 20.0358 127.096 19.8031 127.619 19.6282C128.141 19.4244 128.462 19.3376 128.578 19.2797C128.694 19.2218 128.867 19.1338 129.072 19.018C129.275 18.9022 129.477 18.7274 129.681 18.5236C129.885 18.292 130.031 18.0303 130.176 17.7686C130.322 17.4779 130.38 17.1294 130.38 16.7508V15.8499C130.38 15.5314 130.322 15.2107 130.176 14.8622C130.06 14.5148 129.827 14.223 129.508 13.9323C129.188 13.6428 128.751 13.4101 128.229 13.2353C127.706 13.0616 127.037 12.9736 126.224 12.9736C124.626 12.9736 123.55 13.2931 122.97 13.9613C122.468 14.5483 122.172 15.283 122.127 16.0537C122.127 16.2274 121.981 16.3443 121.807 16.3443H118.32C118.235 16.3437 118.154 16.31 118.095 16.2505C118.035 16.1909 118.001 16.1103 118 16.0259V15.1829C118 14.37 118.146 13.6139 118.465 12.9168C118.755 12.2197 119.249 11.5806 119.948 11.0572C120.616 10.5338 121.458 10.0984 122.504 9.8066C123.521 9.51711 124.77 9.34226 126.224 9.34226H126.225ZM173.737 9.34226H176.061C176.265 9.34226 176.41 9.54606 176.352 9.7487L175.568 12.7709C175.539 12.9168 175.394 13.0037 175.277 13.0037H173.649C172.779 13.0037 172.08 13.1195 171.528 13.3522C171.006 13.5849 170.569 13.8466 170.279 14.1662C170.02 14.437 169.831 14.7658 169.726 15.125C169.648 15.4386 169.609 15.7606 169.61 16.0838V34.9744C169.61 35.1481 169.466 35.294 169.291 35.294H165.803C165.719 35.2931 165.638 35.2591 165.578 35.1994C165.518 35.1396 165.484 35.0589 165.484 34.9744V15.2709C165.484 14.9212 165.541 14.399 165.687 13.7308C165.803 13.0627 166.153 12.4224 166.704 11.7542C167.256 11.1151 168.07 10.5338 169.175 10.0683C170.25 9.57501 171.79 9.34226 173.737 9.34226ZM161.967 28.4922V29.3642C161.967 29.7417 161.909 30.265 161.763 30.9332C161.647 31.5724 161.299 32.2416 160.746 32.8808C160.194 33.52 159.38 34.1013 158.277 34.5656C157.172 35.0311 155.661 35.2639 153.714 35.2639C151.767 35.2639 150.256 35.0311 149.152 34.5656C148.047 34.1013 147.233 33.549 146.681 32.8808C146.13 32.2416 145.781 31.5724 145.664 30.9042C145.548 30.2361 145.462 29.7417 145.462 29.3642V9.66186C145.462 9.48816 145.606 9.34226 145.781 9.34226H149.239C149.323 9.34346 149.404 9.37752 149.464 9.43719C149.523 9.49687 149.557 9.57747 149.558 9.66186V28.1148C149.558 28.725 149.645 29.1604 149.732 29.5101C149.82 29.8574 149.994 30.2071 150.256 30.4978C150.517 30.8174 150.924 31.0791 151.476 31.2817C151.999 31.4855 152.727 31.6025 153.626 31.6025C154.556 31.6025 155.312 31.4855 155.865 31.2817C156.416 31.0791 156.823 30.8174 157.114 30.5267C157.403 30.2361 157.608 29.9165 157.695 29.568C157.782 29.2194 157.898 28.9288 157.898 28.0858V9.66186C157.899 9.57707 157.933 9.49601 157.993 9.43605C158.053 9.37609 158.134 9.34201 158.219 9.34111H161.676C161.761 9.3423 161.841 9.37636 161.901 9.43604C161.961 9.49571 161.995 9.57631 161.996 9.6607V28.4911H161.967V28.4922ZM138.197 0.013916H141.654C141.739 0.0151132 141.819 0.0491686 141.879 0.108846C141.939 0.168523 141.973 0.249119 141.974 0.333507V34.9443C141.973 35.0287 141.939 35.1093 141.879 35.1689C141.819 35.2286 141.739 35.2627 141.654 35.2639H138.197C138.112 35.2633 138.031 35.2292 137.971 35.1692C137.911 35.1091 137.877 35.0279 137.877 34.9431V0.333507C137.877 0.159816 138.022 0.013916 138.197 0.013916Z" fill="white"/>
<mask id="mask0_1_88" style="mask-type:alpha" maskUnits="userSpaceOnUse" x="200" y="0" width="5" height="36">
<path d="M204.111 0H200.271V35.0369H204.111V0Z" fill="white"/>
</mask>
<g mask="url(#mask0_1_88)">
<path fill-rule="evenodd" clip-rule="evenodd" d="M201.15 35.0369C200.547 35.0369 200.27 34.759 200.27 34.1568V0.880033C200.27 0.277905 200.547 0 201.15 0H203.234C203.836 0 204.113 0.277905 204.113 0.880033V34.1568C204.113 34.759 203.835 35.0369 203.233 35.0369H201.151H201.15Z" fill="#EC2F46"/>
</g>
<path fill-rule="evenodd" clip-rule="evenodd" d="M227.815 20.58C227.815 16.6905 226.38 14.9316 223.093 14.9316C219.805 14.9316 218.37 16.6917 218.37 20.58V34.1904C218.37 34.7926 218.092 35.0705 217.491 35.0705H215.407C214.806 35.0705 214.528 34.7926 214.528 34.1904V20.1643C214.528 14.6097 217.538 11.6002 223.093 11.6002C228.649 11.6002 231.657 14.6097 231.657 20.1643V34.1916C231.657 34.7937 231.38 35.0716 230.777 35.0716H228.694C228.092 35.0716 227.814 34.7937 227.814 34.1916V20.5812L227.815 20.58ZM248.185 25.6854V20.6854C248.185 16.7496 246.656 14.898 243.277 14.898C239.945 14.898 238.416 16.7507 238.416 20.6854V25.6854C238.416 29.7127 239.945 31.5179 243.277 31.5179C246.565 31.5179 248.185 29.5737 248.185 25.6854ZM252.027 34.8053C252.027 39.9442 248.741 43 243.324 43C240.269 43 237.768 42.1663 235.824 40.4526C235.407 40.082 235.361 39.6663 235.685 39.2031L236.565 37.9526C236.889 37.4442 237.306 37.3979 237.769 37.8148C239.296 39.0653 241.055 39.6675 243.092 39.6675C246.426 39.6675 248.185 37.8611 248.185 34.5274V32.5369H248.092C246.934 34.0654 245.13 34.8528 242.675 34.8528C237.445 34.8528 234.574 31.7958 234.574 26.1022V20.3149C234.574 14.6201 237.583 11.5643 243.277 11.5643C248.972 11.5643 252.027 14.6213 252.027 20.3149V34.8053ZM271.841 27.1895C271.841 32.699 268.925 35.6158 263.416 35.6158C257.907 35.6158 254.99 32.6978 254.99 27.1895V13.0233C254.99 12.4212 255.268 12.1433 255.87 12.1433H257.954C258.555 12.1433 258.833 12.4212 258.833 13.0233V26.8653C258.833 30.6147 260.269 32.2821 263.463 32.2821C266.656 32.2821 268.092 30.6147 268.092 26.8653V13.0233C268.092 12.4212 268.37 12.1433 268.972 12.1433H270.961C271.563 12.1433 271.841 12.4212 271.841 13.0233V27.1895ZM287.768 26.2435V24.4383H283.231C280.128 24.4383 278.37 25.7352 278.37 28.2815C278.37 30.7815 279.851 32.0309 282.813 32.0309C286.101 32.0309 287.768 30.0855 287.768 26.2435ZM291.61 20.3183V26.614C291.61 32.3088 288.554 35.3646 282.813 35.3646C277.49 35.3646 274.527 32.8183 274.527 28.2351C274.527 23.7898 277.445 21.2435 282.768 21.2435H287.768V20.6877C287.768 16.4763 286.054 14.6699 282.49 14.6699C280.822 14.6699 279.295 15.272 277.907 16.43C277.443 16.8468 277.027 16.8468 276.656 16.3373L275.683 14.9941C275.359 14.531 275.406 14.1141 275.822 13.7436C277.814 12.1236 280.129 11.3374 282.813 11.3374C288.554 11.3374 291.61 14.392 291.61 20.3183ZM210.959 8.31862C210.853 8.47815 210.708 8.60839 210.538 8.6974C210.368 8.78641 210.178 8.83136 209.987 8.82811H208.09C207.488 8.82811 207.257 8.41126 207.58 7.90176L211.051 2.30429C211.282 1.98007 211.56 1.7948 211.976 1.7948H214.381C215.076 1.7948 215.261 2.21166 214.844 2.76747L210.958 8.31862H210.959ZM208.274 35.0091C207.672 35.0091 207.394 34.7312 207.394 34.1302V12.9909C207.394 12.3888 207.672 12.1109 208.274 12.1109H210.356C210.958 12.1109 211.236 12.3888 211.236 12.9909V34.1314C211.236 34.7335 210.958 35.0114 210.356 35.0114H208.274V35.0091Z" fill="#EC2F46"/>
<path fill-rule="evenodd" clip-rule="evenodd" d="M72.2414 22.0993C72.2148 22.2484 72.157 22.3903 72.0718 22.5156C71.9866 22.6409 71.8759 22.7468 71.747 22.8265C71.4853 23.0001 71.2537 23.087 71.021 23.1738C70.5265 23.3487 70.0043 23.5235 69.452 23.7262C68.8996 23.93 68.3762 24.1338 67.8829 24.2785C67.3017 24.4823 66.7482 24.6572 66.2549 24.8598C65.8774 25.0335 65.4999 25.2373 65.1514 25.5279C64.838 25.813 64.5729 26.1469 64.3663 26.5168C64.1347 26.9232 64.0177 27.4177 64.0177 28.0279C64.0177 29.2484 64.3072 30.1493 64.8897 30.7595C65.4698 31.3408 66.5455 31.6604 68.1157 31.6604C69.7136 31.6604 70.8172 31.3408 71.3984 30.7294C71.9797 30.0902 72.2704 29.2194 72.2704 28.0569V22.0981H72.2414V22.0993ZM68.1157 9.34226C70.9341 9.34226 72.9964 9.8946 74.3338 10.9981C75.6423 12.1028 76.3093 13.4981 76.3093 15.1551V29.3931C76.3093 29.9744 76.1935 30.6136 75.9897 31.2817C75.7859 31.9799 75.3794 32.6191 74.7704 33.1715C74.159 33.7516 73.316 34.2171 72.2704 34.6247C71.2236 35.0022 69.8294 35.2048 68.1435 35.2048C66.4297 35.2048 65.0634 35.0022 64.0177 34.6247C62.971 34.246 62.1292 33.7516 61.5189 33.1715C60.9087 32.5902 60.5011 31.951 60.2985 31.2817C60.0947 30.5846 59.9777 29.9455 59.9777 29.3943V27.127C59.9777 25.9066 60.2985 24.8019 60.9087 23.8142C61.5479 22.8265 62.4198 22.1004 63.5812 21.6928C64.1625 21.489 64.8017 21.2864 65.5578 21.0247C66.285 20.763 67.011 20.5303 67.7081 20.2686C68.4052 20.037 68.9865 19.8042 69.5098 19.6294C70.0332 19.4256 70.3528 19.3387 70.4686 19.2808C70.5844 19.2229 70.7593 19.1349 70.9631 19.0191C71.1657 18.9034 71.3695 18.7285 71.5733 18.5247C71.7771 18.2931 71.9218 18.0314 72.0666 17.7697C72.2125 17.4791 72.2704 17.1306 72.2704 16.7519V15.851C72.2704 15.5326 72.2125 15.2119 72.0666 14.8633C71.9508 14.5159 71.7192 14.2241 71.3984 13.9335C71.0789 13.644 70.6435 13.4113 70.1201 13.2364C69.5967 13.0627 68.9286 12.9747 68.1157 12.9747C66.5177 12.9747 65.4408 13.2943 64.8607 13.9624C64.3593 14.5494 64.0633 15.2842 64.0177 16.0548C64.0177 16.2285 63.8718 16.3455 63.6982 16.3455H60.2104C60.1259 16.3449 60.0449 16.311 59.9851 16.2512C59.9253 16.1914 59.8915 16.1105 59.8909 16.0259V15.1829C59.8909 14.37 60.0368 13.6139 60.3563 12.9168C60.6458 12.2197 61.1403 11.5806 61.8385 11.0572C62.5066 10.5338 63.3496 10.0984 64.3952 9.8066C65.442 9.51711 66.6625 9.34226 68.1157 9.34226ZM12.3494 22.0981C12.3229 22.2472 12.2653 22.389 12.1803 22.5143C12.0953 22.6396 11.9848 22.7456 11.8561 22.8253C11.5944 22.999 11.3628 23.0858 11.1301 23.1727C10.6357 23.3475 10.1123 23.5224 9.56109 23.725C9.00876 23.9288 8.48537 24.1326 7.99209 24.2773C7.40964 24.4811 6.85731 24.656 6.36403 24.8586C5.96775 25.0313 5.59625 25.256 5.25935 25.5268C4.96987 25.7885 4.70818 26.108 4.47543 26.5156C4.24384 26.9221 4.12689 27.4165 4.12689 28.0267C4.12689 29.2472 4.41637 30.1481 4.99766 30.7583C5.57894 31.3396 6.65467 31.6592 8.22367 31.6592C9.82163 31.6592 10.9263 31.3396 11.5076 30.7282C12.0889 30.089 12.3795 29.2183 12.3795 28.0557V22.0981H12.3506H12.3494ZM8.22483 9.34226C11.0433 9.34226 13.1067 9.8946 14.443 10.9981C15.7514 12.1028 16.4196 13.4981 16.4196 15.1551V29.3931C16.4196 29.9744 16.3038 30.6136 16.1 31.2817C15.8962 31.9799 15.4897 32.6191 14.8795 33.1715C14.2693 33.7516 13.4263 34.2171 12.3807 34.6247C11.3339 35.0022 9.93974 35.2048 8.25378 35.2048C6.54003 35.2048 5.17367 35.0022 4.12805 34.6247C3.08127 34.246 2.23945 33.7516 1.62806 33.1715C1.01667 32.589 0.610233 31.951 0.407594 31.2806C0.203797 30.5835 0.0868453 29.9443 0.0868453 29.3931V27.1259C0.0868453 25.9054 0.407594 24.8007 1.01667 23.813C1.65585 22.8253 2.52778 22.0993 3.69151 21.6917C4.27047 21.4879 4.91081 21.2852 5.66695 21.0235C6.39297 20.7618 7.119 20.5291 7.81724 20.2674C8.51432 20.0358 9.0956 19.8031 9.61899 19.6282C10.1412 19.4244 10.462 19.3376 10.5778 19.2797C10.6936 19.2218 10.8672 19.1338 11.0722 19.018C11.2748 18.9022 11.4775 18.7274 11.6813 18.5236C11.8851 18.292 12.031 18.0303 12.1757 17.7686C12.3216 17.4779 12.3795 17.1294 12.3795 16.7508V15.8499C12.3795 15.5314 12.3216 15.2107 12.1757 14.8622C12.0599 14.5148 11.8272 14.223 11.5076 13.9323C11.188 13.6428 10.7515 13.4101 10.2292 13.2353C9.70583 13.0616 9.03655 12.9736 8.22367 12.9736C6.62572 12.9736 5.55 13.2931 4.96987 13.9613C4.46843 14.5483 4.17243 15.283 4.12689 16.0537C4.12689 16.2274 3.98099 16.3443 3.8073 16.3443H0.319591C0.235216 16.3437 0.154451 16.31 0.0946791 16.2505C0.0349074 16.1909 0.000908394 16.1103 0 16.0259L0 15.1829C0 14.37 0.1459 13.6139 0.465491 12.9168C0.754975 12.2197 1.24941 11.5806 1.94765 11.0572C2.61578 10.5338 3.4576 10.0984 4.50438 9.8066C5.52105 9.51711 6.77046 9.34226 8.22367 9.34226H8.22483ZM55.7373 9.34226H58.0613C58.2651 9.34226 58.4099 9.54606 58.352 9.7487L57.568 12.7709C57.5391 12.9168 57.3943 13.0037 57.2774 13.0037H55.6493C54.7786 13.0037 54.0803 13.1195 53.528 13.3522C53.0058 13.5849 52.5692 13.8466 52.2786 14.1662C52.0204 14.437 51.831 14.7658 51.7262 15.125C51.6483 15.4386 51.6094 15.7606 51.6104 16.0838V34.9744C51.6104 35.1481 51.4657 35.294 51.2909 35.294H47.8031C47.7187 35.2931 47.6379 35.2591 47.5782 35.1994C47.5184 35.1396 47.4845 35.0589 47.4836 34.9744V15.2709C47.4836 14.9212 47.5415 14.399 47.6874 13.7308C47.8031 13.0627 48.1528 12.4224 48.704 11.7542C49.2564 11.1151 50.0704 10.5338 51.1751 10.0683C52.2496 9.57501 53.7897 9.34226 55.7373 9.34226ZM43.9669 28.4922V29.3642C43.9669 29.7417 43.909 30.265 43.7631 30.9332C43.6473 31.5724 43.2988 32.2416 42.7464 32.8808C42.1941 33.52 41.3801 34.1013 40.2766 34.5656C39.1719 35.0311 37.6608 35.2639 35.7143 35.2639C33.7666 35.2639 32.2555 35.0311 31.152 34.5656C30.0473 34.1013 29.2333 33.549 28.681 32.8808C28.1298 32.2416 27.7812 31.5724 27.6643 30.9042C27.5485 30.2361 27.4617 29.7417 27.4617 29.3642V9.66186C27.4617 9.48816 27.6064 9.34226 27.7812 9.34226H31.2388C31.3232 9.34346 31.4038 9.37752 31.4635 9.43719C31.5232 9.49687 31.5572 9.57747 31.5584 9.66186V28.1148C31.5584 28.725 31.6453 29.1604 31.7321 29.5101C31.8201 29.8574 31.9938 30.2071 32.2555 30.4978C32.5172 30.8174 32.9236 31.0791 33.476 31.2817C33.9994 31.4855 34.7266 31.6025 35.6263 31.6025C36.5561 31.6025 37.3122 31.4855 37.8646 31.2817C38.4157 31.0791 38.8233 30.8174 39.114 30.5267C39.4035 30.2361 39.6084 29.9165 39.6953 29.568C39.7821 29.2194 39.8979 28.9288 39.8979 28.0858V9.66186C39.8988 9.57707 39.9329 9.49601 39.9928 9.43605C40.0528 9.37609 40.1339 9.34201 40.2187 9.34111H43.6763C43.7606 9.3423 43.8412 9.37636 43.9009 9.43604C43.9606 9.49571 43.9946 9.57631 43.9958 9.6607V28.4911H43.9669V28.4922ZM20.1968 0.013916H23.6544C23.7387 0.0151132 23.8193 0.0491686 23.879 0.108846C23.9387 0.168523 23.9727 0.249119 23.9739 0.333507V34.9443C23.9727 35.0287 23.9387 35.1093 23.879 35.1689C23.8193 35.2286 23.7387 35.2627 23.6544 35.2639H20.1968C20.112 35.2632 20.0309 35.2292 19.971 35.1692C19.9112 35.1091 19.8775 35.0279 19.8772 34.9431V0.333507C19.8772 0.159816 20.0219 0.013916 20.1968 0.013916Z" fill="white"/>
<path fill-rule="evenodd" clip-rule="evenodd" d="M93.688 12H90.312C90.1413 12 90 12.0828 90 12.1813V20H82.1813C82.1334 20.0012 82.0877 20.0344 82.0539 20.0927C82.02 20.151 82.0007 20.2296 82 20.312V23.688C82 23.8587 82.0828 24 82.1813 24H90V31.818C90.0003 31.8661 90.0332 31.9122 90.0917 31.9463C90.1501 31.9804 90.2293 31.9997 90.312 32H93.688C93.7704 31.9993 93.849 31.98 93.9073 31.9461C93.9656 31.9123 93.9988 31.8666 94 31.8187V24H101.818C101.866 23.9997 101.912 23.9668 101.946 23.9083C101.98 23.8499 102 23.7707 102 23.688V20.312C101.999 20.2296 101.98 20.151 101.946 20.0927C101.912 20.0344 101.867 20.0012 101.819 20H94V12.1813C93.9988 12.1334 93.9656 12.0877 93.9073 12.0539C93.849 12.02 93.7704 12.0007 93.688 12Z" fill="white"/>
</svg>
